# xmcd CD database file
#
# Track frame offsets:
#	150
#	14468
#	49216
#	73256
#	105755
#	124714
#	147109
#	172654
#	201031
#
# Disc length: 2876 seconds
#
# Revision: 0
# Processed by: cddbd v1.5.2PL0 Copyright (c) Steve Scherf et al.
# Submitted via: CDex 1.51
#
DISCID=720b3a09
DTITLE=Olaf Polziehn Trio - Let It Fall
DYEAR=2007
DGENRE=Jazz
TTITLE0=Hello
TTITLE1=Our love is here to stay
TTITLE2=In the wee small hours of the morning
TTITLE3=A beautiful friendship
TTITLE4=Whatever Lola wants
TTITLE5=On the atchison, topeka an the santa fe
TTITLE6=And the angels sing
TTITLE7=Glad to be unhappy
TTITLE8=Goodbye
EXTD=YEAR: 2007
EXTT0=
EXTT1=
EXTT2=
EXTT3=
EXTT4=
EXTT5=
EXTT6=
EXTT7=
EXTT8=
PLAYORDER=
